<svg width="31" height="31" viewBox="0 0 31 31" fill="none" xmlns="http://www.w3.org/2000/svg">
<path d="M12.4 1.23999C10.6902 1.23999 9.30001 2.63015 9.30001 4.33999V7.43999C9.30001 7.78147 9.0215 8.05999 8.68001 8.05999H5.58001C4.24071 8.05999 3.13876 9.14015 3.12423 10.4698C3.09517 13.1992 3.39306 15.8294 3.91376 17.5029C4.51196 19.4089 5.70353 20.6441 7.26564 20.9807L11.6492 21.9785C12.3225 22.1214 13.0079 21.9858 13.5746 21.5958C14.1413 21.2059 14.5143 20.6174 14.6257 19.8812L14.725 18.4329C15.437 19.3241 16.6165 19.84 17.98 19.84H19.84C21.2084 19.84 22.32 20.9516 22.32 22.32V24.18C22.32 25.2044 21.4845 26.04 20.46 26.04H18.6654C18.3336 26.04 18.0333 25.8172 17.9897 25.529C17.9582 25.3401 18.0067 25.1608 18.1253 25.0204C18.244 24.8799 18.4184 24.8 18.6 24.8H19.84C20.1839 24.8 20.46 24.5215 20.46 24.18V21.7C20.46 21.3585 20.1839 21.08 19.84 21.08H17.98C15.9287 21.08 14.26 22.7487 14.26 24.8V26.04C14.26 28.0913 15.9287 29.76 17.98 29.76H21.08C27.28 29.76 27.28 20.9662 27.28 16.74C27.28 12.4581 27.1783 9.65601 26.6406 7.11062C26.2144 5.10046 25.001 3.91858 23.003 3.5989C22.8407 3.58194 19.3048 3.22351 17.2607 3.11937C16.9168 2.09249 15.7422 1.23999 14.5119 1.23999H12.4ZM8.34095 2.81905L3.9622 7.1978C4.45142 6.95804 5.00118 6.81999 5.58001 6.81999H8.06001V4.33999C8.06001 3.80476 8.16173 3.29374 8.34095 2.81905ZM21.39 12.4C22.2474 12.4 22.94 13.0951 22.94 13.95C22.94 14.3181 22.8068 14.6499 22.5937 14.9163C22.1238 14.5264 21.2108 14.26 20.15 14.26C20.0556 14.26 19.966 14.2673 19.8763 14.2721C19.8521 14.168 19.84 14.0614 19.84 13.95C19.84 13.0926 20.5327 12.4 21.39 12.4Z" fill="#8DC63F"/>
</svg>
