<svg width="31" height="31" viewBox="0 0 31 31" fill="none" xmlns="http://www.w3.org/2000/svg">
<path d="M27.2903 3.875H10.168C9.54605 3.875 9.04166 4.3794 9.04166 5.00133V9.68944H28.4167V5.00133C28.4167 4.3794 27.9123 3.875 27.2903 3.875Z" fill="#2D92D4"/>
<path d="M9.04166 21.3474V25.9987C9.04166 26.6206 9.54605 27.125 10.1673 27.125H27.2903C27.9123 27.125 28.4167 26.6206 28.4167 25.9987V21.3474H9.04166Z" fill="#2150A9"/>
<path d="M9.04166 9.68945H28.4167V15.5032H9.04166V9.68945Z" fill="#2D83D4"/>
<path d="M9.04166 15.5032H28.4167V21.348H9.04166V15.5032Z" fill="#2E70C9"/>
<path d="M14.4144 21.9584H3.66899C3.06966 21.9584 2.58334 21.4721 2.58334 20.8728V10.1274C2.58334 9.52806 3.06966 9.04175 3.66899 9.04175H14.4144C15.0137 9.04175 15.5 9.52806 15.5 10.1274V20.8728C15.5 21.4721 15.0137 21.9584 14.4144 21.9584Z" fill="#00488D"/>
<path d="M11.8853 12.2708L10.8868 16.9621L9.7805 12.2708H8.36806L7.22688 17.1074L6.19806 12.2708H4.93481L6.44865 18.7291H7.96765L9.07396 13.7633L10.1809 18.7291H11.6347L13.1485 12.2708H11.8853Z" fill="white"/>
</svg>
