<svg width="22" height="23" viewBox="0 0 22 23" fill="none" xmlns="http://www.w3.org/2000/svg">
<path d="M3.76695 4.04817C4.48635 4.63453 4.7564 4.58985 6.10775 4.49938L18.8463 3.73209C19.1169 3.73209 18.892 3.4618 18.8018 3.41712L16.6865 1.88309C16.2811 1.56757 15.741 1.20627 14.7059 1.29618L2.3716 2.19751C1.9217 2.24219 1.83205 2.4678 2.01135 2.64873L3.76695 4.04817ZM4.4 7.09416V20.4018C4.4 21.1167 4.75695 21.3848 5.5616 21.3406L19.4557 20.5364C20.2604 20.4923 20.35 19.9997 20.35 19.4188V6.20055C20.35 5.62081 20.1267 5.3075 19.635 5.35218L5.115 6.20055C4.5793 6.24523 4.4 6.51387 4.4 7.09416ZM18.3926 7.40251C18.4839 7.81402 18.3926 8.22497 17.9817 8.2713L17.2986 8.40755V18.454C16.7057 18.7734 16.159 18.956 15.7036 18.956C14.9743 18.956 14.7912 18.7276 14.245 18.0431L9.779 11.0106V17.8147L11.1925 18.1341C11.1925 18.1341 11.1925 18.956 10.0518 18.956L6.90855 19.1386C6.81725 18.956 6.90855 18.4993 7.227 18.4083L8.0476 18.1799V9.18422L6.90855 9.09265C6.8167 8.68115 7.0444 8.08817 7.68295 8.04183L11.055 7.81402L15.703 14.9381V8.63592L14.5178 8.49967C14.4265 7.9966 14.7912 7.63143 15.2466 7.58675L18.3926 7.40251ZM1.38325 0.991689L14.1014 0.0522946C15.6635 -0.0817469 16.0655 0.00816566 17.0467 0.723054L21.1068 3.58481C21.7767 4.07685 22 4.21034 22 4.74706V20.4432C22 21.4267 21.643 22.0086 20.3934 22.0974L5.6232 22.9922C4.68545 23.0368 4.23885 22.9028 3.74825 22.2767L0.75845 18.3862C0.22275 17.6702 0 17.1346 0 16.508V2.55551C0 1.75126 0.35695 1.0805 1.38325 0.991689Z" fill="black"/>
</svg>
